A warrior-assassin is forced to hide in a small town in the American Badlands after refusing a mission.

IMDB link- http://www.imdb.com/title/tt1032751/
rating- 6.2

INFO-

General
Complete name                    :  .mp4
Format                           : MPEG-4
Format profile                   : Base Media / Version 2
Codec ID                         : mp42
File size                        : 212 MiB
Duration                         : 1h 40mn
Overall bit rate mode            : Variable
Overall bit rate                 : 296 Kbps

Video
ID                               : 1
Format                           : AVC
Format/Info                      : Advanced Video Codec
Format profile                   : Main@L2.1
Format settings, CABAC           : Yes
Format settings, ReFrames        : 4 frames
Codec ID                         : avc1
Codec ID/Info                    : Advanced Video Coding
Duration                         : 1h 40mn
Bit rate mode                    : Variable
Bit rate                         : 228 Kbps
Width                            : 624 pixels
Height                           : 256 pixels
Display aspect ratio             : 2.40:1
Frame rate mode                  : Variable
Frame rate                       : 23.976 fps
Minimum frame rate               : 11.989 fps
Maximum frame rate               : 90 000.000 fps
Color space                      : YUV
Chroma subsampling               : 4:2:0
Bit depth                        : 8 bits
Scan type                        : Progressive
Bits/(Pixel*Frame)               : 0.060
Stream size                      : 163 MiB (77%)
Writing library                  : x264

Audio
ID                               : 2
Format                           : AAC
Format/Info                      : Advanced Audio Codec
Format profile                   : LC
Codec ID                         : 40
Duration                         : 1h 40mn
Bit rate mode                    : Variable
Bit rate                         : 64.0 Kbps
Maximum bit rate                 : 94.7 Kbps
Channel(s)                       : 2 channels
Channel positions                : Front: L R
Sampling rate                    : 22.05 KHz
Compression mode                 : Lossy
Stream size                      : 45.9 MiB (22%)

Subtitles                        : English

Sample                           : Included

Try the SAMPLE 1st.
 
http://postimg.com/50000/photo-49972.jpg 
http://postimg.com/50000/photo-49973.jpg

All My 200MB Rips Are Uploaded for Promotional Purposes Only! If You Like It - Buy It!

BEST For SMARTPHONES/IPAD/IPHONE/ANDROID Devices. For PC Use in VLC & MPC.

The Quality of this movies according to the rip size. plz leave your feed-back at my FB page... I am alwayes there.

NEW Rips will Come SOOOOON.